<svg xmlns="http://www.w3.org/2000/svg" xmlns:xlink="http://www.w3.org/1999/xlink" viewBox="0 0 265.1901 65.1241"><defs><style>.cls-1{fill:url(#linear-gradient);}.cls-2{fill:#2a2a2a;stroke-miterlimit:10;stroke-width:2.2457px;stroke:url(#linear-gradient-2);}.cls-3{fill:url(#linear-gradient-3);}</style><linearGradient id="linear-gradient" x1="171.4288" y1="17.3056" x2="171.4288" y2="60.9026" gradientUnits="userSpaceOnUse"><stop offset="0" stop-color="#a68648"/><stop offset="0.9195" stop-color="#c2aa81"/></linearGradient><linearGradient id="linear-gradient-2" y1="32.5621" x2="65.1241" y2="32.5621" gradientUnits="userSpaceOnUse"><stop offset="0" stop-color="#a68648"/><stop offset="1" stop-color="#c2aa81"/></linearGradient><linearGradient id="linear-gradient-3" x1="83.9023" y1="286.6885" x2="91.7986" y2="328.7361" gradientTransform="translate(187.8857 -244.0363) rotate(44.6213)" xlink:href="#linear-gradient-2"/></defs><g id="Layer_2" data-name="Layer 2"><path class="cls-1" d="M104.0517,25.0767A4.772,4.772,0,0,0,101.838,20.78c-1.9531-1.1722-4.7526-.9766-7.2267-.9766h-4.883V35.7542h5.4693c2.3434,0,4.1014-.13,5.2736-1.1068a5.0872,5.0872,0,0,0,1.6927-3.841h1.3019c0,1.4322-.13,2.3439-.13,6.4453,0,4.0366.13,4.8181.1956,6.3156h-1.3024a5.0685,5.0685,0,0,0-1.4976-3.516c-1.3668-1.1718-3.3853-1.302-5.6639-1.302h-5.339V50.338c0,4.102.1956,5.4039.8464,6.3156,1.0419,1.5624,3.9717,1.7576,4.6229,1.7576v1.1721c-2.5395-.13-7.6829-.26-9.9615-.26-3.6458,0-5.1433.0653-8.7892.26l-.0653-1.1721a4.3826,4.3826,0,0,0,3.19-1.4322c1.1068-1.2371,1.1717-3.06,1.1717-8.659V25.9235c0-4.1019-.13-5.5341-.781-6.5107a4.2176,4.2176,0,0,0-3.3858-1.6278V16.6133c3.581.1951,6.38.1951,10.0268.1951h18.62s-.0654,5.2736.1951,8.2683Zm26.9509,34.7671c-4.4273,0-5.3389-2.7346-5.6643-4.1019a10.7535,10.7535,0,0,1-8.8546,4.2322c-8.1385,0-8.659-6.12-8.659-8.0083a7.3582,7.3582,0,0,1,4.2317-6.8361c3.581-1.8882,9.18-1.6926,13.0214-1.6926V41.8093a23.1915,23.1915,0,0,0-.3907-5.5341c-1.0415-3.06-3.6459-3.6459-5.7946-3.6459a7.0947,7.0947,0,0,0-6.5107,3.5156l-1.3669-1.0415c.39-1.1721,2.8644-6.4458,11.3283-6.4458,8.92,0,10.417,4.5576,11.0029,6.3805.6512,1.8883.5209,6.3156.5209,6.7058,0,0-.1951,5.0136-.1951,8.8546,0,1.9532,0,4.6878,2.7995,4.6878a2.9118,2.9118,0,0,0,1.8878-.5859l.8468.8464A9.2148,9.2148,0,0,1,131.0026,59.8438Zm-5.9248-14.2584c-.4556,0-4.2322.0653-5.7946.9766-1.0415.5858-2.539,1.3673-2.539,4.4926,0,2.8644,1.5624,4.6224,4.4922,4.6224a6.0657,6.0657,0,0,0,3.8414-1.1068Zm47.785,8.2033c-2.8649,4.0366-7.6175,6.25-13.2165,6.25-5.2737,0-8.3337-1.302-9.8961-2.2137l-4.4926,2.4092-.9113-.5209c.26-2.3439.3254-7.1619.3254-12.11V22.7333c0-4.102-.0649-5.6644-.7161-6.641-.9117-1.3024-2.7995-1.3024-3.4507-1.3673V13.5533a64.8908,64.8908,0,0,0,8.7892-.7166,39.1167,39.1167,0,0,0,4.1668-.8463l.3259.3258c-.1956,2.3439-.2605,7.1615-.2605,12.11v7.8127c1.6927-2.0181,4.9478-3.581,9.1146-3.581,6.6409,0,13.217,4.102,13.217,14.8444A17.498,17.498,0,0,1,172.8628,53.7887Zm-14.7141-21.42a8.1076,8.1076,0,0,0-4.6224,1.3673V54.9609a5.8609,5.8609,0,0,0,5.2083,2.4737c5.73,0,7.5526-5.5337,7.5526-12.76C166.2872,37.9029,164.334,32.3688,158.1487,32.3688Zm52.9933,21.42c-2.8649,4.0366-7.6175,6.25-13.2165,6.25-5.2737,0-8.3337-1.302-9.8961-2.2137l-4.4926,2.4092-.9113-.5209c.2605-2.3439.3254-7.1619.3254-12.11V22.7333c0-4.102-.0649-5.6644-.7161-6.641-.9117-1.3024-2.7995-1.3024-3.4507-1.3673V13.5533a64.8908,64.8908,0,0,0,8.7892-.7166A39.1167,39.1167,0,0,0,191.74,11.99l.3259.3258c-.1956,2.3439-.2605,7.1615-.2605,12.11v7.8127c1.6927-2.0181,4.9478-3.581,9.1146-3.581,6.6409,0,13.217,4.102,13.217,14.8444A17.4973,17.4973,0,0,1,211.142,53.7887Zm-14.7141-21.42a8.1076,8.1076,0,0,0-4.6224,1.3673V54.9609a5.8609,5.8609,0,0,0,5.2083,2.4737c5.73,0,7.5526-5.5337,7.5526-12.76C204.5664,37.9029,202.6132,32.3688,196.4279,32.3688Zm30.0105,27.0194c-2.279,0-6.12.0649-8.6594.1951V58.4112a4.3826,4.3826,0,0,0,3.19-1.4322c1.1068-1.2371,1.1721-3.06,1.1721-8.659V22.7333c0-4.102-.0653-5.6644-.7165-6.641-.9112-1.3024-2.7995-1.3024-3.45-1.3673V13.5533a64.8962,64.8962,0,0,0,8.7893-.7166,39.1675,39.1675,0,0,0,4.1668-.8463l.3254.3258c-.1952,2.3439-.2605,7.1615-.2605,12.11V50.2731c0,4.1015.1956,5.5342.8463,6.5107a4.1682,4.1682,0,0,0,3.32,1.6274v1.1721C232.6233,59.4531,228.7169,59.3882,226.4384,59.3882ZM247.53,42.2v.2605a21.2934,21.2934,0,0,0,.8463,6.7058c1.9532,6.1849,6.9014,6.641,10.2868,6.641a13.8209,13.8209,0,0,0,6.25-1.3673l.6512.8463c-.7814.8463-3.9716,4.6224-11.85,4.6224-4.9479,0-15.04-1.1068-15.04-14.9092,0-2.3439.1951-16.4068,15.3-16.4068,6.7712,0,9.3756,3.06,10.3522,4.4922,1.8878,2.7346,2.1483,5.7946,2.1483,8.659V42.2ZM257.5566,38.88c0-4.297-.9117-7.7477-4.8829-7.7477-2.7346,0-5.0785.9766-5.0785,8.2034h9.9614Z" transform="translate(-1.2859 -3.5504)"/><circle class="cls-2" cx="32.5621" cy="32.5621" r="31.4392"/><path class="cls-3" d="M37.1859,41.9633a4.4071,4.4071,0,0,1,4.5191-1.2848,4.3568,4.3568,0,0,1,3.0909,3.1795,1.6027,1.6027,0,0,0,2.7192.83c2.3734-2.4447,4.717-4.9184,7.123-7.4334-.1322-.1132-.2437-.2-.3453-.297-2.3156-2.2107-4.6367-4.4157-6.9354-6.6437a2.1081,2.1081,0,0,1-.5764-.97c-.2125-.9119.3267-1.6207,1.3568-1.9117a4.4619,4.4619,0,0,0-2.0547-8.6764,4.3986,4.3986,0,0,0-3.5146,3.3685,2.49,2.49,0,0,1-.508,1.0126,1.577,1.577,0,0,1-2.3123-.0778q-3.5032-3.3409-6.9969-6.6916a1.436,1.436,0,0,1-.2042-.3845c-2.4836,2.5944-4.8378,5.04-7.168,7.509a1.7582,1.7582,0,0,0-.42.9239,1.578,1.578,0,0,0,1.427,1.79A4.4505,4.4505,0,0,1,29.84,30.93a4.5849,4.5849,0,0,1-.9115,2.338c-.0978.1274-.1868.2283-.2517.2985l-9.6777,9.7707a13.7261,13.7261,0,0,1,.022-2.6872,20.3142,20.3142,0,0,1,5.13-11.2428.34.34,0,0,0,.0474-.2607,11.7071,11.7071,0,0,0-8.2356,4.0232,12.9209,12.9209,0,0,0-2.8509,9.3411,15.8135,15.8135,0,0,0,5.7191,10.3149c3.3889,2.736,7.68,3.4079,11.8956,3.4162a33.778,33.778,0,0,0,5.4357-.6334,28.8979,28.8979,0,0,1-9.01-2.1825Z" transform="translate(-1.2859 -3.5504)"/></g></svg>