<svg id="Capa_1" data-name="Capa 1" xmlns="http://www.w3.org/2000/svg" viewBox="0 0 402.6524 402.6392"><defs><style>.cls-1{fill:#93d0cd;}.cls-2{fill:#2a3d4a;}.cls-3{fill:#f7b3a2;}.cls-4{fill:#f08381;}.cls-5{fill:#f49f99;}.cls-6{fill:#fff;}.cls-7{fill:#40211e;}.cls-8{fill:#ce9343;}.cls-9{fill:#a06d2d;}.cls-10{fill:#436175;}.cls-11{fill:#5caead;}</style></defs><path class="cls-1" d="M402.3849,201.3133a201.3262,201.3262,0,0,1-402.6524,0C-.2675,90.1252,89.8709,0,201.059,0S402.3849,90.1252,402.3849,201.3133Z" transform="translate(0.2675)"/><path class="cls-2" d="M357.9846,327.4426A201.3155,201.3155,0,0,1,60.1293,345.0715c20.56-14.8514,78.0259-57.0661,79.2985-57.0661l122.902-8.4609Z" transform="translate(0.2675)"/><path class="cls-3" d="M254.36,343.8811C203.6031,353.3329,135.945,290.99,135.945,290.99l-3.9272-49.4325-2.0362-25.7052,112.9449,14.928,22.051,39.24,7.3083,12.9992S305.1084,334.4192,254.36,343.8811Z" transform="translate(0.2675)"/><path class="cls-4" d="M264.9775,270.0205c-50.0655,27.6641-106.6386,4.1489-132.96-28.4627l-2.0362-25.7052,112.9449,14.928Z" transform="translate(0.2675)"/><path class="cls-4" d="M276.8924,158.51s2.8254-8.6746,11.648-3.5531,7.45,28.57-4.5683,40.4893S276.8924,158.51,276.8924,158.51Z" transform="translate(0.2675)"/><path class="cls-3" d="M222.3692,256.3532c-50.5985.0729-91.8972-30.2382-96.8735-44.9483-4.9759-14.6995,7.9405-130.501,20.8988-131.3925,0,0,93.5453-18.12,111.4581-11.4446,12.5432,4.6856,21.914,57.4609,26.7448,96.21,1.348,10.8017,2.3431,20.5147,2.9547,27.7922.3315,3.8978.5494,7.1.653,9.3915C289.2,223.8553,262.7354,256.2911,222.3692,256.3532Z" transform="translate(0.2675)"/><path class="cls-4" d="M232.499,135.2972c1.623-.17,3.2417-.3724,4.8577-.5959q.4466-.0612.8928-.1231c.2361-.032-.0916.012.06-.0075l.2261-.03c.1784-.0232.3561-.0464.5343-.0684.901-.1136,1.8026-.214,2.7054-.3083a1.2523,1.2523,0,0,0,1.2181-1.2173,1.2256,1.2256,0,0,0-1.2181-1.2181c-1.623.1688-3.241.3717-4.8577.5952q-.4463.0621-.8927.1231c-.2355.032.0916-.012-.0591.0074l-.2267.03c-.1777.0232-.3559.0465-.5342.0685-.9.1136-1.8027.214-2.7055.3083a1.253,1.253,0,0,0-1.2181,1.218A1.2267,1.2267,0,0,0,232.499,135.2972Z" transform="translate(0.2675)"/><path class="cls-4" d="M231.0166,131.6914c3.2624-.79,6.4751-1.775,9.7375-2.5648,1.5232-.3687.8783-2.718-.6473-2.3489-3.2624.79-6.4752,1.775-9.7382,2.5648C228.8462,129.711,229.4909,132.0605,231.0166,131.6914Z" transform="translate(0.2675)"/><path class="cls-5" d="M187.5073,195.0373A14.038,14.038,0,1,1,173.47,181,14.0375,14.0375,0,0,1,187.5073,195.0373Z" transform="translate(0.2675)"/><path class="cls-5" d="M287.5521,192.57h-.1142a14.0407,14.0407,0,0,1-2.8405-27.7922C285.9454,175.5792,286.9405,185.2922,287.5521,192.57Z" transform="translate(0.2675)"/><path class="cls-6" d="M217.01,172.0237a4.4387,4.4387,0,0,1-.7465,2.4154c-1.7517,2.1561-7.6818,2.1247-11.8175,2.1354-1.2959,0-2.4053,0-3.172.0721q-6.5624.6376-13.1242,1.2859c-3.2861.3108-8.417,1.3581-11.4646-.3943a3.819,3.819,0,0,1-.6329-.4458,10.136,10.136,0,0,1-1.8867-2.2489A116.4047,116.4047,0,0,1,162.0162,151.54c-.7257-1.866-1.0158-3.0269-.7151-3.8456.3522-.9537,1.5131-1.4616,3.7213-2.0945.5808-.1658,1.1716-.3108,1.7624-.4251,2.1354-.4665,4.3121-.7251,6.4067-1.3266,9.433-2.6848,19.0216-5.4216,28.7245-7.1219,1.493-.2587,3.0062-.4972,4.5092-.7044a31.6454,31.6454,0,0,1,6.0231-.4872c3.5141.1965,3.307,1.6895,3.8356,5.1622A122.8657,122.8657,0,0,1,217.01,172.0237Z" transform="translate(0.2675)"/><path class="cls-7" d="M205.9587,166.9236c-.01,4.0428-.435,7.5048-1.513,9.6509-1.2959,0-2.4053,0-3.172.0721q-6.5624.6376-13.1242,1.2859c-3.2861.3108-8.417,1.3581-11.4646-.3943a3.819,3.819,0,0,1-.6329-.4458,76.5439,76.5439,0,0,1-3.9078-8.6557,90.44,90.44,0,0,1-5.7116-17.7777,8.5705,8.5705,0,0,1-.0836-4.5721,4.6475,4.6475,0,0,1,.4358-.9123c1.0367-1.69,3.0683-2.7055,4.9444-3.5035a121.1237,121.1237,0,0,1,27.305-7.9612,1.7948,1.7948,0,0,1,2.5189,1.5653c.1036.3835.2286.8707.3629,1.4509C203.2741,142.3555,205.99,156.5471,205.9587,166.9236Z" transform="translate(0.2675)"/><path class="cls-6" d="M280.026,164.529c-.6944,1.43-4.0114,2.6948-5.39,3.3277q-.7158.3257-1.4616.6215a38.2865,38.2865,0,0,1-4.7793,1.5344,65.1582,65.1582,0,0,1-7.7434,1.3889c-1.9695.2386-4.2607,1.1508-5.5666-.6009a21.833,21.833,0,0,1-2.7054-6.0645,143.9438,143.9438,0,0,1-4.4371-17.82c-.1142-.6116-1.8245-8.0542-2.011-10.273-.0314-.373-.0207-.5908.0414-.6216,0,0,.3729-.1664,1.0366-.4357,1.3995-.57,4.0842-1.6168,7.2982-2.6018,8.5621-2.654,20.8984-4.9237,22.8886,3.0375a110.0983,110.0983,0,0,1,2.7884,22.7743C280.0367,160.2062,280.6789,163.2124,280.026,164.529Z" transform="translate(0.2675)"/><path class="cls-7" d="M273.1742,168.4782a38.2865,38.2865,0,0,1-4.7793,1.5344,65.1582,65.1582,0,0,1-7.7434,1.3889c-1.9695.2386-4.2607,1.1508-5.5666-.6009a21.833,21.833,0,0,1-2.7054-6.0645,143.9438,143.9438,0,0,1-4.4371-17.82c-.1142-.6116-1.8245-8.0542-2.011-10.273a5.4987,5.4987,0,0,1,1.078-1.0573,11.5209,11.5209,0,0,1,3.95-1.8968,21.8061,21.8061,0,0,1,3.3484-.705,23.2927,23.2927,0,0,1,12.5741,1.8345c2.6433,1.1822,3.0791,1.7524,3.6907,4.6549.6529,3.0785,1.1194,6.1989,1.4923,9.3194.4252,3.5555.7259,7.1318,1.0265,10.698A40.7376,40.7376,0,0,1,273.1742,168.4782Z" transform="translate(0.2675)"/><path class="cls-8" d="M126.9107,189.2157s8.6577-2.3809,12.9509-18.7642-.0057-70.1492,1.601-73.9146c0,0,90.1788-.523,96.3116-2.5057s33.949-13.2485,38.113-32.4659-1.6613-31.67-1.6613-31.67l-4.6418,2.1986a31.0813,31.0813,0,0,1,3.1638,10.9324l-7.6247-11.2978S153.8541,49.6818,142.6556,51.0423c0,0-6.6854,9.3922-9.0249,16.5981l-5.3625-13.6722s-18.4251,14.4689-17.3665,54.75a617.4284,617.4284,0,0,0,6.8412,75.2343Z" transform="translate(0.2675)"/><path class="cls-3" d="M130.1726,190.4193s-1.4925-16.9176-16.42-14.9273-18.4106,22.3906-5.4736,33.8352,22.8886,10.3315,22.8886,10.3315Z" transform="translate(0.2675)"/><path class="cls-4" d="M109.8808,190.57a5.1385,5.1385,0,0,1,4.911-2.2182,8.16,8.16,0,0,1,5.64,3.09,24.7051,24.7051,0,0,1,3.7093,6.5215c1.2978,2.9987,2.4531,6.0583,3.5029,9.1523.501,1.4762,2.8548.8426,2.3494-.6479-1.1848-3.49-2.5083-6.9366-3.9994-10.3082a21.6245,21.6245,0,0,0-4.9156-7.5381c-3.6785-3.3094-10.4343-4.1036-13.3011.72A1.2188,1.2188,0,0,0,109.8808,190.57Z" transform="translate(0.2675)"/><path class="cls-4" d="M117.1357,202.2677a55.0777,55.0777,0,0,1,8.228-5.733,1.2184,1.2184,0,0,0-1.2292-2.104,58.56,58.56,0,0,0-8.7211,6.1142,1.2277,1.2277,0,0,0,0,1.7228A1.2445,1.2445,0,0,0,117.1357,202.2677Z" transform="translate(0.2675)"/><path class="cls-7" d="M243.0709,118.3267l1.4347,20.4708s19.1181-3.4834,34.7086,2.156c0,0-3.5637-14.3341-5.1064-17.3194S246.8645,117.3316,243.0709,118.3267Z" transform="translate(0.2675)"/><path class="cls-7" d="M216.856,139.3135s-.7962-17.2629-3.1155-21.0162c0,0-42.79,5.0894-57.17,21.9793l3.7879,10.9134S191.5412,139.7763,216.856,139.3135Z" transform="translate(0.2675)"/><path class="cls-6" d="M193.1806,162.0464c-.3842.2555-.7974.5915-.8124,1.0523-.0195.5783.5889.9619,1.1351,1.1528a14.5659,14.5659,0,0,0,4.8025.5576q3.9253.0056,7.8508-.08a4.0054,4.0054,0,0,0,2.2634-.5066c1.1565-.8174,1.1227-2.5434.744-3.9079-.3228-1.1621-.668-2.8139-1.9595-3.0727-1.3091-.2617-3.6071.6988-4.893,1.0254A29.3849,29.3849,0,0,0,193.1806,162.0464Z" transform="translate(0.2675)"/><path class="cls-6" d="M263.5906,157.1058a1.7246,1.7246,0,0,0-.7259.7409,1.2551,1.2551,0,0,0,.4489,1.3612,3.3847,3.3847,0,0,0,1.4.5876,27.9386,27.9386,0,0,0,9.8724.5771,1.7509,1.7509,0,0,0,.6385-.1633,1.67,1.67,0,0,0,.6493-1.46c.0433-.93.027-3.1808-.7421-3.8683-.7158-.64-2.5819-.172-3.4929-.0929A17.3752,17.3752,0,0,0,263.5906,157.1058Z" transform="translate(0.2675)"/><path class="cls-6" d="M198.66,200.5373c.992,1.34,3.472,1.984,4.9883,2.5767a49.4067,49.4067,0,0,0,5.6294,1.8145,55.0489,55.0489,0,0,0,11.7347,1.6695c6.87.25,13.7758-.9274,19.2318-5.52Z" transform="translate(0.2675)"/><path class="cls-4" d="M232.499,138.2594l11.039-1.704s23.8122,43.8087,22.3762,50.0755c-2.62,11.4314-30.0028,10.2126-30.0028,10.2126Z" transform="translate(0.2675)"/><path class="cls-9" d="M221.3539,248.5327q-1.2969,5.0856-2.5924,10.1718a1.219,1.219,0,0,0,2.3487.648q1.296-5.0867,2.5926-10.1725A1.219,1.219,0,0,0,221.3539,248.5327Z" transform="translate(0.2675)"/><path class="cls-9" d="M242.4875,248.1321a46.0736,46.0736,0,0,0,2.1324,9.4386,1.2469,1.2469,0,0,0,1.498.8507,1.2284,1.2284,0,0,0,.8507-1.498,43.155,43.155,0,0,1-2.0449-8.7913,1.2556,1.2556,0,0,0-1.2181-1.2181A1.2262,1.2262,0,0,0,242.4875,248.1321Z" transform="translate(0.2675)"/><path class="cls-9" d="M251.3027,246.23q2.3574,3.46,4.7152,6.92a1.2183,1.2183,0,1,0,2.1034-1.23q-2.3573-3.4593-4.7152-6.92a1.2182,1.2182,0,0,0-2.1034,1.2294Z" transform="translate(0.2675)"/><path class="cls-10" d="M135.7185,309.9711c18.641,19.8165,41.0417,36.871,66.87,46.0491,13.3665,4.75,27.7538,7.4413,41.9667,6.6063,13.53-.7949,29.2092-4.7925,38.4889-15.3971,9.8492-11.2562,9.794-27.3532,8.3744-41.3928-.1563-1.5444-2.5943-1.5607-2.4362,0,1.2375,12.2357,1.6576,26.0586-5.4309,36.7468-7.6988,11.6084-23.2295,16.2143-36.3944,17.4124-27.008,2.4567-53.9978-7.9425-76.0945-22.8008a198.6836,198.6836,0,0,1-33.6212-28.9468C136.3645,307.1037,134.6448,308.8291,135.7185,309.9711Z" transform="translate(0.2675)"/><path class="cls-11" d="M295.8511,250.7923a2.66,2.66,0,1,1-2.66-2.66A2.66,2.66,0,0,1,295.8511,250.7923Z" transform="translate(0.2675)"/></svg>