<?xml version="1.0" encoding="utf-8"?>
<!-- Generator: Adobe Illustrator 25.2.0, SVG Export Plug-In . SVG Version: 6.00 Build 0)  -->
<svg version="1.1" id="Layer_4" xmlns="http://www.w3.org/2000/svg" xmlns:xlink="http://www.w3.org/1999/xlink" x="0px" y="0px"
	 viewBox="0 0 35.5 35.7" style="enable-background:new 0 0 35.5 35.7;" xml:space="preserve">
<style type="text/css">
	.st0{fill:#9FCFEF;}
	.st1{fill:#272526;}
</style>
<path class="st0" d="M0,17.7c0.2-0.2,0.1-1.7,0.2-2c0.1-0.6,0.2-1.1,0.3-1.7C2,7.4,7,2.2,13.6,0.6C18.2-0.5,23,0.3,27,2.7
	c4,2.4,6.9,6.3,8,10.9c1.1,4.6,0.4,9.4-2.1,13.5c-2.4,3.9-6.4,6.9-10.9,8c-4.6,1.1-9.5,0.4-13.6-2.1c-4-2.4-6.8-6.4-7.9-10.9
	c-0.3-1.3-0.4-2.5-0.5-3.8c0-0.1,0-0.2-0.1-0.3V17.7z"/>
<path class="st0" d="M17.4,1.7c8.9-0.2,16.3,6.9,16.5,15.8C34.1,26.4,27,33.8,18.1,34C9.2,34.2,1.8,27.1,1.6,18.2S8.5,1.9,17.4,1.7z
	"/>
<path class="st1" d="M22.3,17.4c3.6-0.3,5.7-3.1,6.9-6.3c-0.2,2.1-0.4,3.4-1,5.4c-1.8,5.4-5.6,9.6-10.5,12.5c-1.6-0.8-3.9-2.8-5.2-4
	c-2.9-3-5-6.7-5.8-10.8c-0.2-0.8-0.4-2.1-0.3-2.9c0.1,0.1,0.5,1.3,0.7,1.5c1.2,2.2,3.3,4.4,6.1,4.4c1.1,2.2,2.5,4.4,4.6,5.7
	C19.9,21.6,21.1,19.6,22.3,17.4z"/>
<path class="st1" d="M17.7,6.6c0.2,0.1,1.1,1.1,1.3,1.3c1.1,1.1,2.2,2.3,3.4,3.4c-0.9,1.8-1.8,3.5-2.7,5.3c-0.6,1.2-1.5,2.8-2,4
	c-1.7-2.8-3.1-6.4-4.8-9.3C14.6,9.8,16.1,8.2,17.7,6.6z"/>
</svg>
