<?xml version="1.0" encoding="utf-8"?>
<!-- Generator: Adobe Illustrator 25.2.0, SVG Export Plug-In . SVG Version: 6.00 Build 0)  -->
<svg version="1.1" id="Layer_1" xmlns="http://www.w3.org/2000/svg" xmlns:xlink="http://www.w3.org/1999/xlink" x="0px" y="0px"
	 viewBox="0 0 151 151" style="enable-background:new 0 0 151 151;" xml:space="preserve">
<style type="text/css">
	.st0{fill:#181717;}
	.st1{fill:#5A97D1;}
</style>
<g>
	<path class="st0" d="M0,74.7c0.8-1.1,0.5-6.2,0.7-7.8c0.4-2.7,0.8-5.4,1.4-8.1C8.3,30.7,30,8.7,58,2c19.5-4.6,40-1.3,57,9.1
		c16.8,10.4,28.9,27,33.6,46.2c4.7,19.6,1.5,40.3-9.1,57.4c-10.5,16.9-27.2,29-46.5,33.6c-19.5,4.6-40.1,1.3-57.1-9.3
		C19,128.7,7,112,2.4,92.7C1.5,89,0.9,85.2,0.6,81.3c-0.1-1.6,0.1-4.6-0.6-5.7V74.7z"/>
	<path class="st1" d="M74.4,6.6c37.9-0.6,69.1,29.6,69.7,67.5c0.6,37.9-29.6,69.1-67.5,69.7c-37.9,0.6-69.1-29.6-69.7-67.5
		C6.3,38.4,36.5,7.2,74.4,6.6z"/>
	<path class="st0" d="M65.8,17c1.2-0.2,4.6,0.3,5.8,0.5c24.1,3.2,47,15.4,51.9,41.1c2.2,11.5,1.3,22.5-5.4,32.5
		c-5.7,8.6-13.1,14.3-23.2,16.4c-5.5,1.1-11,0.8-16.5-0.2c2.1-1.5,4.3-3.1,6.4-4.7c14.9-11.6,27.5-32.4,20.6-51.7
		c-5.3-14.9-19.7-25-33.5-31.3C69.9,18.8,67.8,18,65.8,17z"/>
	<path class="st0" d="M60.7,29.5c0.4-0.1,2.6-0.1,3.1-0.1c6.5-0.2,13,1.2,18.8,4.1c10,4.9,15.1,13.3,18.6,23.4
		C85.3,48.7,67.3,44,50,51.5c-9.8,4.2-15.9,12.3-19.6,22.1c-3.9,10-5.1,27.3-2.6,37.8c-4.4-7.4-6.4-17.8-7.7-26.3
		C15.9,59.1,33.3,32.6,60.7,29.5z"/>
	<path class="st0" d="M45.5,63.1c0.2,0.1,0.5,0.4,0.5,0.7c1.5,13.6,5.2,25.6,14.3,36.4c20.8,24.7,51.2,11.7,71.7-6.1
		c-2.1,3.9-7.6,10.5-10.5,13.8c-9.3,9.6-20.2,17.8-33.9,19.5c-12.4,1.5-26.2-1.9-36-9.7c-8.3-6.7-13.7-16.4-15-27
		C35.3,80.3,39.2,71.1,45.5,63.1z"/>
</g>
</svg>
