<svg xmlns="http://www.w3.org/2000/svg" viewBox="0 0 41.5 41.5">
<defs>
<style>.cls-1{fill:#878887;}.cls-2{fill:#fff;}</style>
</defs>
<g id="Layer_3" data-name="Layer 3">
<circle class="cls-1" cx="20.75" cy="20.71" r="20.03"/>
<path class="cls-2" d="M14.5,11h4.8c2.1,0,3.7,0.5,4.8,1.5c1.1,1,1.6,2.3,1.6,3.9c0,1.1-0.3,2.1-0.8,2.8c-0.5,0.7-1.2,1.3-2.1,1.7c1.1,0.4,2,1,2.6,1.8c0.6,0.8,0.9,1.8,0.9,3.1c0,1.8-0.6,3.2-1.9,4.2c-1.2,1-2.9,1.5-5,1.5H14.5V11z M17.2,19.5h1.7c0.9,0,1.6-0.2,2-0.7c0.4-0.4,0.7-1.1,0.7-1.9c0-0.8-0.2-1.3-0.7-1.7c-0.4-0.4-1.1-0.7-2-0.7h-1.7V19.5z M17.2,28.5h2c1,0,1.8-0.3,2.3-0.8c0.5-0.5,0.8-1.2,0.8-2.1c0-0.9-0.3-1.6-0.8-2.1c-0.5-0.5-1.3-0.8-2.3-0.8h-2V28.5z"/>
</g>
</svg>